<svg data-name="Layer 1" xmlns="http://www.w3.org/2000/svg" width="370.9" height="273.9"><path d="M369 69.2a32.7 32.7 0 0 0-.7-7.3c-6.7-33.5-28.6-52.2-60.7-58a254 254 0 0 0-118.8 7.3 37 37 0 0 1-19.7 0A179 179 0 0 0 72.6 9a83.8 83.8 0 0 0-63 61.4 256 256 0 0 0-.1 138.2c6 21.8 19 40.9 38.7 52.4 25.5 15 53.9 12.9 82.4 12.7a80 80 0 0 0 12.8-.8c15.3-2.6 31.7-9.8 46.3-15.1a11.5 11.5 0 0 1 8.4.3c37.3 20.3 74.9 17.5 113 2.6 3-1.2 7 .7 10.6 1.1 7.6 1 15.2 2 22.9 2.5 8.7.6 17.5.4 26.3.6 0-65.2-2-130.5-2-195.7zM161.9 166c-3.4 26.2-15.8 45-44 45.7-24.5.5-43.3-12.1-45.4-34.7a403 403 0 0 1-.1-73.5c2-22.7 18.4-34.2 42.3-34.5 17.7-.2 34.5 5 41.8 22.4 5.8 13.6 7.6 30.2 7.4 46.3a248.4 248.4 0 0 1-2 28.3zm61.9-98.2c20.2-.6 39.2-2.2 58-1.3 14 .6 18.8 7.8 20.2 23.7l-72.5 5.9-5.7-28.3zm78.4 121.6c-.2 3.3-3.8 8.4-6.7 9.2-14 3.5-28 7-42.3 8.1-13.2 1-21-6.8-22.7-18.8-2.4-16.4 3.3-28.8 16.8-31.4 17.5-3.4 35.5-4.5 55.3-6.8 0 15.1.5 27.4-.4 39.7z"/></svg>